<svg version="1.0" xmlns="http://www.w3.org/2000/svg"
 width="48" height="48" viewBox="0 0 499.000000 499.000000"
 preserveAspectRatio="xMidYMid meet">

<g transform="translate(0.000000,499.000000) scale(0.100000,-0.100000)"
fill="#000000" stroke="none">
<path d="M1140 3401 c0 -242 3 -441 8 -443 4 -2 206 -2 450 0 l442 3 0 440 0
439 -450 0 -450 0 0 -439z"/>
<path d="M2948 3833 c0 -5 0 -205 2 -445 l2 -438 -453 0 -454 0 -453 -453
-452 -452 2 -445 3 -445 445 0 445 0 0 448 0 447 450 0 450 0 453 453 452 453
-2 439 -3 440 -442 3 c-244 1 -444 -1 -445 -5z"/>
<path d="M2948 1613 c-2 -241 -1 -444 1 -451 2 -10 96 -12 445 -10 l441 3 0
445 0 445 -442 3 -443 2 -2 -437z"/>
</g>
</svg>
